# xmcd
#
# Track frame offsets:
#	150
#	23193
#	38189
#	53520
#	66594
#	82039
#	97335
#	112374
#	129964
#	145509
#	159698
#	175386
#
# Disc length: 2595 seconds
#
# Revision: 1
# Processed by: cddbd v1.5.2PL0 Copyright (c) Steve Scherf et al.
# Submitted via: audiograbber 1.83.01
#
DISCID=ad0a210c
DTITLE=Jon Pardi - California Sunrise
DYEAR=2016
DGENRE=Country
TTITLE0=Out Of Style
TTITLE1=Cowboy Hat
TTITLE2=Head Over Boots
TTITLE3=Night Shift
TTITLE4=Can't Turn You Down
TTITLE5=Dirt On My Boots
TTITLE6=She Ain't In It
TTITLE7=All Time High
TTITLE8=Heartache On The Dance Floor
TTITLE9=Paycheck
TTITLE10=Lucky Tonight
TTITLE11=California Sunrise
EXTD=
EXTT0=
EXTT1=
EXTT2=
EXTT3=
EXTT4=
EXTT5=
EXTT6=
EXTT7=
EXTT8=
EXTT9=
EXTT10=
EXTT11=
PLAYORDER=
